<svg xmlns="http://www.w3.org/2000/svg" xmlns:xlink="http://www.w3.org/1999/xlink" version="1.1" x="0px" y="0px" viewBox="0 0 100 125" style="enable-background:new 0 0 100 100;" xml:space="preserve"><style type="text/css">
	.st0{fill:#010101;}
</style><path class="st0" d="M84.1,0.5L33.8,16.3c-1.3,0.3-0.8,1.5-0.8,2.8v59.7c-3-1.2-5.4-1.8-8.1-1.8  c-7.2,0-13.5,5-13.5,11.2c0,6.2,5.6,11.2,12.8,11.2c7.1,0,12.8-4.9,13-10.9c0,0-0.5-49.6-0.5-49.6L82,25v36.2  c-2-1.2-4.1-1.8-6.7-1.8c-7.2,0-12.8,5-12.8,11.2s5.1,11.2,12.3,11.2S87,76.8,87,70.6c0,0,0-67.3,0-67.3C87,1.4,86,0,84.1,0.5z"/><text x="0" y="115" fill="#000000" font-size="5px" font-weight="bold" font-family="'Helvetica Neue', Helvetica, Arial-Unicode, Arial, Sans-serif">Created by Jardson Almeida</text><text x="0" y="120" fill="#000000" font-size="5px" font-weight="bold" font-family="'Helvetica Neue', Helvetica, Arial-Unicode, Arial, Sans-serif">from the Noun Project</text></svg>